<svg width="800" height="800" viewBox="0 0 800 800" fill="none" xmlns="http://www.w3.org/2000/svg">
<path d="M694.637 314.08C702.581 315.791 705.366 325.685 699.447 331.163L597.941 425.098C595.007 427.813 594.002 432.024 595.387 435.793L651.993 589.833C654.659 597.086 648.435 604.42 640.817 603.002L493.415 575.566C489.239 574.789 485.045 576.71 482.943 580.361L397.518 728.762C393.763 735.286 384.341 735.405 380.318 728.979L287.155 580.165C284.936 576.62 280.748 574.802 276.651 575.604L136.481 603.056C129.14 604.494 122.806 597.684 124.816 590.514L168.238 435.612C169.272 431.923 168.084 427.954 165.183 425.404L58.0454 331.239C51.865 325.807 54.4556 315.736 62.473 314.026L212.583 282.023C217.169 281.045 220.433 277.021 220.433 272.345L220.433 125.809C220.433 117.786 229.462 113.116 236.114 117.697L363.581 205.491C367.171 207.964 371.934 207.862 375.373 205.24L504.536 106.786C510.749 102.051 519.824 105.987 520.638 113.77L537.297 273.097C537.749 277.417 540.952 280.973 545.22 281.893L694.637 314.08Z" fill="#FB4CA1"/>
<ellipse cx="435.353" cy="300.677" rx="13.7617" ry="16.892" fill="black"/>
<ellipse cx="483.52" cy="293.92" rx="13.7617" ry="16.892" fill="black"/>
</svg>
