<svg width="16" height="16" viewBox="0 0 16 16" fill="none" xmlns="http://www.w3.org/2000/svg">
<path fill-rule="evenodd" clip-rule="evenodd" d="M5.27336 2.15336L2.15336 5.27536V5.2687C2.10401 5.3188 2.06506 5.37817 2.03875 5.44338C2.01243 5.5086 1.99927 5.57838 2.00003 5.6487V10.3514C2.00003 10.498 2.05336 10.6314 2.15336 10.7314L5.2667 13.8467C5.3667 13.9467 5.5067 14 5.6467 14H10.3534C10.5 14 10.6334 13.9467 10.7334 13.8467L13.8467 10.7314C13.896 10.6813 13.935 10.6219 13.9613 10.5567C13.9876 10.4915 14.0008 10.4217 14 10.3514V5.6487C14 5.50203 13.9467 5.3687 13.8467 5.2687L10.7334 2.15336C10.6833 2.10401 10.6239 2.06506 10.5587 2.03875C10.4935 2.01243 10.4237 1.99927 10.3534 2.00003H5.65336C5.5067 2.00003 5.37336 2.05336 5.27336 2.15336ZM8.00003 4.6667C8.17684 4.6667 8.34641 4.73694 8.47144 4.86196C8.59646 4.98698 8.6667 5.15655 8.6667 5.33336V8.6667C8.6667 8.84351 8.59646 9.01308 8.47144 9.1381C8.34641 9.26313 8.17684 9.33336 8.00003 9.33336C7.82322 9.33336 7.65365 9.26313 7.52863 9.1381C7.4036 9.01308 7.33336 8.84351 7.33336 8.6667V5.33336C7.33336 5.15655 7.4036 4.98698 7.52863 4.86196C7.65365 4.73694 7.82322 4.6667 8.00003 4.6667ZM7.33336 10.6667C7.33336 10.4899 7.4036 10.3203 7.52863 10.1953C7.65365 10.0703 7.82322 10 8.00003 10H8.00536C8.18218 10 8.35174 10.0703 8.47677 10.1953C8.60179 10.3203 8.67203 10.4899 8.67203 10.6667C8.67203 10.8435 8.60179 11.0131 8.47677 11.1381C8.35174 11.2631 8.18218 11.3334 8.00536 11.3334H8.00003C7.82322 11.3334 7.65365 11.2631 7.52863 11.1381C7.4036 11.0131 7.33336 10.8435 7.33336 10.6667Z" fill="#FB4CA1"/>
</svg>
