<svg width="24" height="24" viewBox="0 0 24 24" fill="none" xmlns="http://www.w3.org/2000/svg">
<path fill-rule="evenodd" clip-rule="evenodd" d="M6.74199 5.54172C5.02239 5.95932 3.60039 7.28412 3.60039 9.59532C3.60039 12.6721 6.20319 15.6829 12.0004 18.5329C17.7976 15.6829 20.4004 12.6721 20.4004 9.59532C20.4004 7.28532 18.9784 5.95932 17.2588 5.54172C15.4936 5.11212 13.5124 5.66532 12.484 7.06572C12.4283 7.14162 12.3554 7.20333 12.2714 7.24587C12.1874 7.28841 12.0946 7.31057 12.0004 7.31057C11.9062 7.31057 11.8134 7.28841 11.7294 7.24587C11.6454 7.20333 11.5725 7.14162 11.5168 7.06572C10.4884 5.66532 8.50719 5.11212 6.74199 5.54172ZM12.0004 5.79372C10.5724 4.36212 8.36199 3.91212 6.45879 4.37412C4.27839 4.90572 2.40039 6.65532 2.40039 9.59532C2.40039 13.4833 5.71959 16.8337 11.74 19.7401C11.8212 19.7793 11.9102 19.7996 12.0004 19.7996C12.0906 19.7996 12.1796 19.7793 12.2608 19.7401C18.2812 16.8337 21.6004 13.4845 21.6004 9.59532C21.6004 6.65532 19.7224 4.90572 17.542 4.37532C15.6388 3.91332 13.4296 4.36452 12.0004 5.79372Z" fill="#F5FAFF"/>
</svg>
